<svg width="35" height="35" viewBox="0 0 35 35" fill="none" xmlns="http://www.w3.org/2000/svg">
<circle cx="17.5" cy="17.5" r="17.5" fill="#D9D9D9"/>
<path d="M18 26C18.8288 26 19.5 25.2656 19.5 24.359H16.5C16.5 25.2656 17.1712 26 18 26ZM22.5 21.0769V16.9744C22.5 14.4513 21.2738 12.3467 19.125 11.7887V11.2308C19.125 10.5497 18.6225 10 18 10C17.3775 10 16.875 10.5497 16.875 11.2308V11.7887C14.7262 12.3467 13.5 14.4513 13.5 16.9744V21.0769L12 22.7179V23.5385H24V22.7179L22.5 21.0769ZM21 21.8974H15V16.9744C15 14.9354 16.1363 13.2821 18 13.2821C19.8637 13.2821 21 14.9354 21 16.9744V21.8974Z" fill="#010101"/>
</svg>
