<svg width="19" height="16" viewBox="0 0 19 16" fill="none" xmlns="http://www.w3.org/2000/svg">
<path fillRule="evenodd" clipRule="evenodd" d="M1.05556 0C0.775605 0 0.50712 0.120408 0.309165 0.334735C0.11121 0.549063 0 0.839753 0 1.14286C0 1.44596 0.11121 1.73665 0.309165 1.95098C0.50712 2.16531 0.775605 2.28571 1.05556 2.28571H17.9444C18.2244 2.28571 18.4929 2.16531 18.6908 1.95098C18.8888 1.73665 19 1.44596 19 1.14286C19 0.839753 18.8888 0.549063 18.6908 0.334735C18.4929 0.120408 18.2244 0 17.9444 0H1.05556ZM0 8C0 7.6969 0.11121 7.40621 0.309165 7.19188C0.50712 6.97755 0.775605 6.85714 1.05556 6.85714H17.9444C18.2244 6.85714 18.4929 6.97755 18.6908 7.19188C18.8888 7.40621 19 7.6969 19 8C19 8.30311 18.8888 8.59379 18.6908 8.80812C18.4929 9.02245 18.2244 9.14286 17.9444 9.14286H1.05556C0.775605 9.14286 0.50712 9.02245 0.309165 8.80812C0.11121 8.59379 0 8.30311 0 8ZM0 14.8571C0 14.554 0.11121 14.2633 0.309165 14.049C0.50712 13.8347 0.775605 13.7143 1.05556 13.7143H17.9444C18.2244 13.7143 18.4929 13.8347 18.6908 14.049C18.8888 14.2633 19 14.554 19 14.8571C19 15.1602 18.8888 15.4509 18.6908 15.6653C18.4929 15.8796 18.2244 16 17.9444 16H1.05556C0.775605 16 0.50712 15.8796 0.309165 15.6653C0.11121 15.4509 0 15.1602 0 14.8571Z" fill="black"/>
</svg>
