<svg width="28" height="28" viewBox="0 0 28 28" fill="none" xmlns="http://www.w3.org/2000/svg">
<path d="M21.5484 15.1889C21.042 15.6948 20.7525 16.4227 20.8249 17.1999C20.9334 18.5324 22.1273 19.5071 23.4296 19.5071H25.7208V20.9752C25.7208 23.5291 23.6829 25.6141 21.1867 25.6141H9.00713C10.008 24.7135 10.6471 23.3934 10.6471 21.9129C10.6471 19.1863 8.4886 16.9779 5.82357 16.9779C4.69003 16.9779 3.6409 17.385 2.80884 18.0636V12.6721C2.80884 10.1182 4.84679 8.0332 7.34299 8.0332H21.1867C23.6829 8.0332 25.7208 10.1182 25.7208 12.6721V14.4487H23.2849C22.6096 14.4487 21.9946 14.7201 21.5484 15.1889Z" stroke="white" stroke-width="1.5" stroke-linecap="round" stroke-linejoin="round"/>
<path opacity="0.4" d="M2.80884 12.6722V8.14442C2.80884 6.67626 3.68914 5.36843 5.02768 4.85025L14.6025 1.14901C16.0978 0.581485 17.7016 1.70423 17.7016 3.34512V8.03335" stroke="white" stroke-width="1.5" stroke-linecap="round" stroke-linejoin="round"/>
<path d="M27.0001 15.7072V18.2487C27.0001 18.9272 26.4695 19.4824 25.7942 19.5071H23.4307C22.1283 19.5071 20.9345 18.5324 20.8259 17.2C20.7536 16.4227 21.043 15.6948 21.5495 15.189C21.9957 14.7202 22.6107 14.4487 23.286 14.4487H25.7942C26.4695 14.4734 27.0001 15.0286 27.0001 15.7072Z" stroke="white" stroke-width="1.5" stroke-linecap="round" stroke-linejoin="round"/>
<g opacity="0.4">
<path d="M8.23535 13.2769H16.6766H8.23535Z" fill="white"/>
<path d="M8.23535 13.2769H16.6766" stroke="white" stroke-width="1.5" stroke-linecap="round" stroke-linejoin="round"/>
</g>
<path d="M10.6472 21.913C10.6472 23.3935 10.008 24.7136 9.00714 25.6143C8.15095 26.3792 7.04153 26.848 5.82358 26.848C3.15855 26.848 1 24.6396 1 21.913C1 20.3585 1.69942 18.9644 2.80884 18.0637C3.64091 17.3852 4.69004 16.978 5.82358 16.978C8.4886 16.978 10.6472 19.1864 10.6472 21.913Z" stroke="white" stroke-width="1.5" stroke-miterlimit="10" stroke-linecap="round" stroke-linejoin="round"/>
<path d="M6.12504 20.3706V22.2212L4.61768 23.1465" stroke="white" stroke-width="1.5" stroke-miterlimit="10" stroke-linecap="round" stroke-linejoin="round"/>
</svg>
